<svg width="12" height="7" viewBox="0 0 12 7" fill="none" xmlns="http://www.w3.org/2000/svg">
<path d="M5.97644 6.99998C5.81926 7.00087 5.66345 6.97146 5.51794 6.91344C5.37243 6.85542 5.24008 6.76993 5.12848 6.66188L0.351237 1.9984C0.239881 1.8897 0.151549 1.76065 0.0912838 1.61862C0.0310185 1.47659 2.34665e-09 1.32437 0 1.17064C-2.34665e-09 1.01691 0.0310185 0.864682 0.0912838 0.722654C0.151549 0.580625 0.239881 0.451576 0.351237 0.342872C0.462593 0.234168 0.594791 0.147939 0.740285 0.0891088C0.885778 0.0302787 1.04172 -2.29076e-09 1.1992 0C1.35668 2.29076e-09 1.51262 0.0302787 1.65811 0.0891088C1.8036 0.147939 1.9358 0.234168 2.04716 0.342872L5.97644 4.2019L9.91767 0.494435C10.0275 0.375178 10.1614 0.279334 10.311 0.212895C10.4605 0.146457 10.6225 0.110855 10.7868 0.108314C10.951 0.105773 11.1141 0.136348 11.2657 0.198129C11.4174 0.259909 11.5543 0.351566 11.668 0.467365C11.7816 0.583165 11.8696 0.720616 11.9264 0.871122C11.9832 1.02163 12.0076 1.18195 11.998 1.34207C11.9884 1.50219 11.945 1.65865 11.8707 1.80167C11.7963 1.9447 11.6925 2.0712 11.5658 2.17328L6.78857 6.67354C6.57016 6.8791 6.2798 6.99581 5.97644 6.99998Z" fill="white"/>
</svg>
