<svg width="32" height="32" viewBox="0 0 32 32" fill="none" xmlns="http://www.w3.org/2000/svg">
<path fill-rule="evenodd" clip-rule="evenodd" d="M16 32C24.8366 32 32 24.8366 32 16C32 7.16344 24.8366 0 16 0C7.16344 0 0 7.16344 0 16C0 24.8366 7.16344 32 16 32ZM10.313 19.7999C9.56147 18.6751 9.16036 17.3527 9.16036 16H9.15936C9.15761 14.6375 9.56447 13.3059 10.3274 12.177L10.9704 12.737C11.0496 12.8059 11.146 12.8521 11.2494 12.8704C11.3528 12.8888 11.4593 12.8788 11.5574 12.8415C11.6556 12.8041 11.7417 12.7408 11.8067 12.6583C11.8717 12.5758 11.913 12.4772 11.9264 12.373L12.2584 9.781C12.2704 9.68635 12.259 9.59019 12.225 9.50103C12.191 9.41187 12.1356 9.33247 12.0636 9.26986C11.9916 9.20726 11.9053 9.16338 11.8122 9.14212C11.7192 9.12087 11.6224 9.12288 11.5304 9.148L9.01036 9.838C8.90917 9.86578 8.8174 9.9205 8.74485 9.99632C8.67231 10.0721 8.62169 10.1662 8.59839 10.2685C8.57509 10.3709 8.57999 10.4776 8.61257 10.5773C8.64514 10.6771 8.70417 10.7661 8.78336 10.835L9.44636 11.412C8.41932 12.8791 7.91421 14.6483 8.01192 16.4365C8.10963 18.2246 8.80449 19.9283 9.98527 21.2747C11.166 22.6212 12.7644 23.5325 14.5246 23.8628C16.2847 24.193 18.1047 23.9232 19.6933 23.0965C21.2819 22.2697 22.5471 20.9338 23.2864 19.3027C24.0258 17.6716 24.1964 15.8396 23.7711 14.1C23.3458 12.3604 22.3491 10.8139 20.9406 9.70789C19.5321 8.60192 17.7932 8.00053 16.0024 8C15.8485 8 15.701 8.06111 15.5922 8.16988C15.4835 8.27865 15.4224 8.42617 15.4224 8.58C15.4224 8.73383 15.4835 8.88135 15.5922 8.99012C15.701 9.09889 15.8485 9.16 16.0024 9.16C17.3551 9.1604 18.6773 9.56189 19.8019 10.3137C20.9265 11.0655 21.8029 12.1339 22.3203 13.3838C22.8377 14.6337 22.9728 16.0089 22.7087 17.3356C22.4445 18.6623 21.7929 19.8809 20.8363 20.8373C19.8796 21.7937 18.6608 22.445 17.334 22.7087C16.0073 22.9725 14.6321 22.8369 13.3823 22.3191C12.1326 21.8014 11.0645 20.9247 10.313 19.7999Z" fill="white"/>
</svg>
