<svg width="32" height="32" viewBox="0 0 32 32" fill="none" xmlns="http://www.w3.org/2000/svg">
<path fill-rule="evenodd" clip-rule="evenodd" d="M16 32C24.8366 32 32 24.8366 32 16C32 7.16344 24.8366 0 16 0C7.16344 0 0 7.16344 0 16C0 24.8366 7.16344 32 16 32ZM14.9947 9.30106L21.5898 15.0917H21.5886C21.7178 15.2051 21.8214 15.3448 21.8923 15.5016C21.9633 15.6584 22 15.8287 22 16.0009C22 16.1731 21.9633 16.3434 21.8923 16.5002C21.8214 16.657 21.7178 16.7967 21.5886 16.9101L14.9959 22.7007C14.8219 22.8537 14.6077 22.9531 14.3789 22.987C14.1501 23.021 13.9164 22.988 13.7058 22.892C13.4952 22.7961 13.3166 22.6413 13.1915 22.4461C13.0663 22.2509 12.9998 22.0237 13 21.7916V10.2102C13 9.17308 14.2175 8.61768 14.9947 9.30106Z" fill="white"/>
</svg>
